<svg xmlns="http://www.w3.org/2000/svg" xmlns:xlink="http://www.w3.org/1999/xlink" enable-background="new 0 0 64 64" viewBox="0 0 64 64"><pattern id="a" width="24.62" height="24.62" x="-84" overflow="visible" patternUnits="userSpaceOnUse" viewBox="0 -24.62 24.62 24.62"><rect width="24.62" height="24.62" y="-24.62" fill="none"/><rect width="24.62" height="24.62" y="-24.62" fill="#8bbb54"/></pattern><path d="M46.13,21.86c-0.39-0.38-0.92-0.58-1.47-0.58c-0.56,0.02-1.14,0.06-1.73,0.11c-0.38-1.35-0.98-2.62-1.83-3.75
		C38.91,14.68,35.6,13,32,12.99c-1.8,0-3.53,0.42-5.08,1.21c-1.55,0.8-2.92,1.96-4.01,3.44c-0.84,1.13-1.45,2.4-1.83,3.75
		c-0.59-0.05-1.17-0.09-1.73-0.11c-0.55-0.01-1.07,0.2-1.47,0.58c-0.39,0.39-0.61,0.92-0.6,1.47l0.27,16.32
		c0.02,1.03,0.82,1.88,1.85,1.97c4.8,0.41,8.86,1.34,12.42,2.85c0.06,0.02,0.13,0.03,0.19,0.03c0.07,0,0.13-0.01,0.2-0.04
		c3.55-1.5,7.61-2.42,12.41-2.84c1.04-0.09,1.84-0.94,1.85-1.97l0.28-16.32C46.74,22.77,46.52,22.25,46.13,21.86z M28.75,14.51
		c-0.98,1-1.81,2.47-2.37,4.28c-0.78-0.28-1.54-0.62-2.3-1.02C25.33,16.24,26.95,15.12,28.75,14.51z M23.47,18.57
		c0.88,0.46,1.76,0.87,2.65,1.19c-0.19,0.75-0.32,1.53-0.42,2.33c-1.25-0.27-2.46-0.47-3.61-0.61
		C22.39,20.44,22.86,19.47,23.47,18.57z M31.51,43.27c-3.48-1.38-7.42-2.24-12.02-2.63c-0.53-0.05-0.95-0.48-0.96-1l-0.27-16.32
		c-0.01-0.29,0.1-0.55,0.31-0.76c0.2-0.19,0.44-0.3,0.72-0.3h0.03c2.07,0.06,4.31,0.37,6.75,0.93h0.01c1.7,0.38,3.51,0.89,5.43,1.53
		V43.27z M31.51,23.68c-1.69-0.56-3.31-1.01-4.84-1.37c0.09-0.78,0.22-1.52,0.39-2.24c1.48,0.45,2.96,0.7,4.45,0.75V23.68z
		 M31.51,19.83c-1.4-0.04-2.8-0.29-4.19-0.71c0.9-2.87,2.48-4.77,4.19-5.08V19.83z M40.54,18.57c0.62,0.9,1.08,1.88,1.4,2.91
		c-1.16,0.14-2.37,0.34-3.62,0.61c-0.09-0.81-0.23-1.59-0.42-2.33C38.77,19.44,39.66,19.03,40.54,18.57z M39.94,17.77
		c-0.77,0.4-1.54,0.75-2.3,1.02c-0.57-1.81-1.4-3.28-2.38-4.28C37.06,15.12,38.67,16.24,39.94,17.77z M32.49,14.04
		c1.71,0.32,3.3,2.22,4.2,5.08c-1.4,0.42-2.8,0.67-4.2,0.71V14.04z M32.49,20.82c1.49-0.05,2.98-0.3,4.46-0.75
		c0.18,0.72,0.32,1.47,0.39,2.24c-1.54,0.35-3.15,0.82-4.85,1.37V20.82z M45.47,39.64c-0.01,0.52-0.41,0.96-0.95,1
		c-4.61,0.39-8.55,1.26-12.03,2.64V24.71c4.69-1.55,8.68-2.35,12.2-2.45c0.29,0,0.54,0.1,0.75,0.3c0.2,0.21,0.31,0.47,0.31,0.76
		L45.47,39.64z"/><path d="M30.03 32.96c-.07.19-.26.31-.45.31-.06 0-.12-.01-.18-.03-2.55-1-5.35-1.35-9.05-1.59-.27-.02-.47-.25-.46-.52.02-.28.26-.48.52-.46 3.8.24 6.69.6 9.34 1.65C30.01 32.42 30.14 32.71 30.03 32.96zM30.03 35.59c-.07.2-.26.32-.45.32-.06 0-.12-.02-.18-.04-2.55-1-5.35-1.35-9.05-1.59-.27-.01-.47-.25-.46-.52.02-.27.26-.47.52-.45 3.8.24 6.69.59 9.34 1.64C30.01 35.05 30.14 35.34 30.03 35.59zM30.03 38.22c-.07.2-.26.32-.45.32-.06 0-.12-.01-.18-.04-2.55-1-5.35-1.35-9.05-1.58-.27-.02-.47-.26-.46-.52.02-.28.26-.48.52-.46 3.8.24 6.69.6 9.34 1.65C30.01 37.69 30.14 37.98 30.03 38.22zM44.11 31.13c.02.28-.19.5-.46.52-3.69.24-6.5.58-9.04 1.59-.06.02-.13.03-.19.03-.2 0-.37-.12-.45-.31-.1-.26.02-.54.28-.64 2.66-1.05 5.55-1.42 9.34-1.65C43.84 30.65 44.09 30.86 44.11 31.13zM44.11 33.76c.02.28-.19.51-.46.52-3.7.24-6.5.58-9.04 1.59-.06.02-.13.04-.19.04-.2 0-.37-.12-.45-.32-.1-.26.02-.54.28-.64 2.66-1.05 5.54-1.41 9.34-1.64C43.84 33.29 44.09 33.5 44.11 33.76zM44.11 36.4c.02.27-.19.5-.46.52-3.69.23-6.5.57-9.04 1.58-.06.03-.13.04-.19.04-.2 0-.37-.12-.45-.32-.1-.25.02-.53.28-.63 2.67-1.05 5.55-1.42 9.34-1.65C43.84 35.92 44.09 36.13 44.11 36.4z"/><path d="M63.51,46.4h-2.58V12.76c0-0.63-0.22-1.21-0.59-1.66c-0.48-0.6-1.23-0.98-2.06-0.98H5.73c-1.47,0-2.65,1.18-2.65,2.65V46.4
		H0.49C0.23,46.4,0,46.61,0,46.89v1.64c0,2.95,2.4,5.36,5.36,5.36h53.3c2.94,0,5.35-2.4,5.35-5.36v-1.64
		C64,46.61,63.78,46.4,63.51,46.4z M4.07,12.76c0-0.92,0.74-1.66,1.66-1.66h52.55c0.92,0,1.66,0.75,1.66,1.66V46.4H4.07V12.76z
		 M37.64,47.38v2.05c0,0.12-0.1,0.22-0.22,0.22H26.8c-0.12,0-0.22-0.1-0.22-0.22v-2.05H37.64z M63.02,48.53
		c0,2.41-1.96,4.37-4.36,4.37H5.36c-2.41,0-4.37-1.96-4.37-4.37v-1.15H25.6v2.05c0,0.66,0.54,1.2,1.2,1.2h10.62
		c0.66,0,1.2-0.54,1.2-1.2v-2.05h24.39V48.53z"/><path fill="#4e5c68" d="M37.64,47.38v2.05c0,0.12-0.1,0.22-0.22,0.22H26.8c-0.12,0-0.22-0.1-0.22-0.22v-2.05H37.64z"/><path fill="#596674" d="M63.02,47.38v1.15c0,2.41-1.96,4.37-4.36,4.37H5.36c-2.41,0-4.37-1.96-4.37-4.37v-1.15H25.6v2.05
		c0,0.66,0.54,1.2,1.2,1.2h10.62c0.66,0,1.2-0.54,1.2-1.2v-2.05H63.02z"/><path fill="#59c3db" d="M58.28,11.1H12.13c-0.93,0-1.66,0.75-1.66,1.66V46.4h49.48V12.76C59.94,11.84,59.2,11.1,58.28,11.1z
		 M32.2,44.46c-0.07,0.03-0.13,0.04-0.2,0.04c-0.06,0-0.13-0.01-0.19-0.03c-3.55-1.51-7.61-2.43-12.42-2.85
		c-1.03-0.09-1.83-0.94-1.85-1.97l-0.27-16.32c-0.01-0.55,0.21-1.07,0.6-1.47c0.39-0.38,0.92-0.59,1.47-0.58
		c0.56,0.02,1.14,0.06,1.73,0.11c0.38-1.35,0.99-2.62,1.83-3.75C24,16.16,25.37,15,26.92,14.2c1.55-0.79,3.28-1.21,5.08-1.21
		c1.1,0.01,2.18,0.17,3.2,0.46c2.32,0.7,4.38,2.14,5.9,4.18c0.85,1.13,1.45,2.4,1.83,3.75c0.59-0.05,1.17-0.09,1.73-0.11
		c0.55,0,1.07,0.2,1.47,0.58c0.39,0.39,0.61,0.92,0.6,1.47l-0.28,16.32c-0.01,1.03-0.81,1.88-1.85,1.97
		c-3.5,0.31-6.6,0.88-9.39,1.75C34.17,43.69,33.16,44.05,32.2,44.46z"/><path fill="#4ebcce" d="M12.13,11.1c-0.93,0-1.66,0.75-1.66,1.66V46.4h-6.4V12.76c0-0.92,0.74-1.66,1.66-1.66H12.13z"/><pattern id="b" patternTransform="translate(-118.494 -127.95) scale(.9846)" xlink:href="#a"/><path fill="url(#b)" d="M41.93,21.48c-1.16,0.14-2.37,0.34-3.62,0.61c-0.09-0.81-0.23-1.59-0.42-2.33c0.89-0.32,1.77-0.73,2.65-1.19
		C41.16,19.47,41.62,20.45,41.93,21.48z"/><pattern id="c" patternTransform="translate(-118.494 -127.95) scale(.9846)" xlink:href="#a"/><path fill="url(#c)" d="M39.94,17.77
		c-0.77,0.4-1.54,0.75-2.3,1.02c-0.57-1.81-1.4-3.28-2.38-4.28C37.06,15.12,38.67,16.24,39.94,17.77z"/><pattern id="d" patternTransform="translate(-118.494 -127.95) scale(.9846)" xlink:href="#a"/><path fill="url(#d)" d="M37.35,22.31
		c-1.54,0.35-3.15,0.82-4.85,1.37v-2.86c1.49-0.05,2.98-0.3,4.46-0.75C37.13,20.8,37.27,21.54,37.35,22.31z"/><pattern id="e" patternTransform="translate(-118.494 -127.95) scale(.9846)" xlink:href="#a"/><path fill="url(#e)" d="M36.7,19.12c-1.4,0.42-2.8,0.67-4.2,0.71
		v-5.79C34.21,14.36,35.79,16.26,36.7,19.12z"/><pattern id="f" patternTransform="translate(-118.494 -127.95) scale(.9846)" xlink:href="#a"/><path fill="url(#f)" d="M31.51,20.82v2.86
		c-1.69-0.56-3.31-1.01-4.84-1.37c0.09-0.78,0.22-1.52,0.39-2.24C28.53,20.53,30.02,20.78,31.51,20.82z"/><pattern id="g" patternTransform="translate(-118.494 -127.95) scale(.9846)" xlink:href="#a"/><path fill="url(#g)" d="M31.51,14.04v5.79
		c-1.4-0.04-2.8-0.29-4.19-0.71C28.21,16.26,29.79,14.36,31.51,14.04z"/><pattern id="h" patternTransform="translate(-118.494 -127.95) scale(.9846)" xlink:href="#a"/><path fill="url(#h)" d="M26.12,19.76
		c-0.19,0.75-0.32,1.53-0.42,2.33c-1.25-0.27-2.46-0.47-3.61-0.61c0.31-1.04,0.78-2.02,1.39-2.91
		C24.35,19.03,25.24,19.44,26.12,19.76z"/><pattern id="i" patternTransform="translate(-118.494 -127.95) scale(.9846)" xlink:href="#a"/><path fill="url(#i)" d="M28.75,14.51c-0.98,1-1.81,2.47-2.37,4.28
		c-0.78-0.28-1.54-0.62-2.3-1.02C25.33,16.24,26.95,15.12,28.75,14.51z"/><path fill="#bbbbbc" d="M45.44 22.56c-.21-.2-.46-.3-.75-.3-3.52.1-7.51.91-12.2 2.45v18.57c3.49-1.38 7.42-2.24 12.03-2.64.53-.05.94-.48.95-1l.28-16.32C45.75 23.03 45.64 22.76 45.44 22.56zM43.65 36.92c-3.69.23-6.5.57-9.04 1.58-.06.03-.13.04-.19.04-.2 0-.37-.12-.45-.32-.1-.25.02-.53.28-.63 2.67-1.05 5.55-1.42 9.34-1.65.26-.02.5.19.52.46C44.13 36.67 43.92 36.9 43.65 36.92zM43.65 34.28c-3.7.24-6.5.58-9.04 1.59-.06.02-.13.04-.19.04-.2 0-.37-.12-.45-.32-.1-.26.02-.54.28-.64 2.66-1.05 5.54-1.41 9.34-1.64.26-.02.5.19.52.45C44.13 34.04 43.92 34.27 43.65 34.28zM43.65 31.66c-3.69.24-6.5.58-9.04 1.59-.06.02-.13.03-.19.03-.2 0-.37-.12-.45-.31-.1-.26.02-.54.28-.64 2.66-1.05 5.55-1.42 9.34-1.65.26-.02.5.19.52.46C44.13 31.41 43.92 31.64 43.65 31.66zM26.08 23.19L26.08 23.19c-2.45-.55-4.7-.87-6.76-.93h-.03c-.28 0-.52.11-.72.3-.21.21-.32.47-.31.76l.27 16.32c.01.52.42.96.96 1 4.6.39 8.55 1.25 12.02 2.63V24.71C29.59 24.07 27.79 23.57 26.08 23.19zM30.03 38.22c-.07.2-.26.32-.45.32-.06 0-.12-.01-.18-.04-2.55-1-5.35-1.35-9.05-1.58-.27-.02-.47-.26-.46-.52.02-.28.26-.48.52-.46 3.8.24 6.69.6 9.34 1.65C30.01 37.69 30.14 37.98 30.03 38.22zM30.03 35.59c-.07.2-.26.32-.45.32-.06 0-.12-.02-.18-.04-2.55-1-5.35-1.35-9.05-1.59-.27-.01-.47-.25-.46-.52.02-.27.26-.47.52-.45 3.8.24 6.69.59 9.34 1.64C30.01 35.05 30.14 35.34 30.03 35.59zM30.03 32.96c-.07.19-.26.31-.45.31-.06 0-.12-.01-.18-.03-2.55-1-5.35-1.35-9.05-1.59-.27-.02-.47-.25-.46-.52.02-.28.26-.48.52-.46 3.8.24 6.69.6 9.34 1.65C30.01 32.42 30.14 32.71 30.03 32.96z"/></svg>