<svg xmlns="http://www.w3.org/2000/svg" xmlns:xlink="http://www.w3.org/1999/xlink" viewBox="0 0 48 48"><defs><linearGradient id="a" x1=".192" x2="55.354" y1="23" y2="23" gradientUnits="userSpaceOnUse"><stop offset="0" stop-color="#e93e3a"/><stop offset=".357" stop-color="#ed683c"/><stop offset=".717" stop-color="#f3903f"/><stop offset="1" stop-color="#fdc70c"/></linearGradient><linearGradient id="b" x1=".192" x2="55.354" y1="21.5" y2="21.5" xlink:href="#a"/><linearGradient id="c" x1=".192" x2="55.354" y1="16" y2="16" xlink:href="#a"/><linearGradient id="d" x1=".192" x2="55.354" y1="11" y2="11" xlink:href="#a"/><linearGradient id="e" x1=".192" x2="55.354" y1="14" y2="14" xlink:href="#a"/><linearGradient id="f" x1=".192" x2="55.354" y1="17" y2="17" xlink:href="#a"/></defs><path fill="url(#a)" d="M45,34H44V11a5.006,5.006,0,0,0-5-5V8a3,3,0,0,1,3,3V34H6V11A3,3,0,0,1,9,8V6a5.006,5.006,0,0,0-5,5V34H3a1,1,0,0,0-1,1v3a2,2,0,0,0,2,2H44a2,2,0,0,0,2-2V35A1,1,0,0,0,45,34ZM4,38V36H20a1,1,0,0,0,1,1h6a1,1,0,0,0,1-1H44v2Z"/><path fill="url(#b)" d="M9,11H7V31a1,1,0,0,0,1,1H40a1,1,0,0,0,1-1V11H39V30H9Z"/><path fill="url(#c)" d="M11,25h8.877l3.88.97a1,1,0,0,0,.486,0l3.88-.97H37a1,1,0,0,0,1-1V9a1,1,0,0,0-1-1H35V7a1,1,0,0,0-1-1H28a1,1,0,0,0-.243.03L24,6.97l-3.757-.94A1,1,0,0,0,20,6H14a1,1,0,0,0-1,1V8H11a1,1,0,0,0-1,1V24A1,1,0,0,0,11,25ZM28.123,8H33V20H28a1,1,0,0,0-.243.03L25,20.719V8.781ZM15,8h4.877L23,8.781V20.719l-2.757-.689A1,1,0,0,0,20,20H15Zm-3,2h1V21a1,1,0,0,0,1,1h5.877l3.88.97a1,1,0,0,0,.486,0l3.88-.97H34a1,1,0,0,0,1-1V10h1V23H28a1,1,0,0,0-.243.03L24,23.969l-3.757-.939A1,1,0,0,0,20,23H12Z"/><rect width="5" height="2" x="27" y="10" fill="url(#d)"/><rect width="5" height="2" x="27" y="13" fill="url(#e)"/><rect width="5" height="2" x="27" y="16" fill="url(#f)"/><rect width="5" height="2" x="16" y="10" fill="url(#d)"/><rect width="5" height="2" x="16" y="13" fill="url(#e)"/><rect width="5" height="2" x="16" y="16" fill="url(#f)"/></svg>